<?xml version="1.0" encoding="utf-8"?>
<!-- Generator: Adobe Illustrator 18.1.1, SVG Export Plug-In . SVG Version: 6.00 Build 0)  -->
<svg version="1.1" id="Layer_1" xmlns="http://www.w3.org/2000/svg" xmlns:xlink="http://www.w3.org/1999/xlink" x="0px" y="0px"
	 viewBox="0 0 595.3 841.9" enable-background="new 0 0 595.3 841.9" xml:space="preserve">
<linearGradient id="SVGID_1_" gradientUnits="userSpaceOnUse" x1="92.417" y1="460.0685" x2="505.2086" y2="460.0685" gradientTransform="matrix(0.9465 0.3226 -0.3226 0.9465 161.4979 -76.6529)">
	<stop  offset="0" style="stop-color:#4C6486"/>
	<stop  offset="1.980000e-02" style="stop-color:#4C6486"/>
	<stop  offset="1" style="stop-color:#5A77A0"/>
</linearGradient>
<path fill="url(#SVGID_1_)" d="M167.1,193.3L34,584l390.7,133.2l133.2-390.7L167.1,193.3z"/>
<g>
	<rect y="127.2" fill="none" width="595.3" height="595.3"/>
</g>
<g>
	<linearGradient id="SVGID_2_" gradientUnits="userSpaceOnUse" x1="52.7959" y1="389.3927" x2="503.5879" y2="389.3927">
		<stop  offset="0" style="stop-color:#4C6486"/>
		<stop  offset="1.980000e-02" style="stop-color:#4C6486"/>
		<stop  offset="1" style="stop-color:#5A77A0"/>
	</linearGradient>
	<rect x="52.8" y="164" fill="url(#SVGID_2_)" width="450.8" height="450.8"/>
	<path fill="#FFFFFF" d="M484.6,183v412.8H71.8V183H484.6 M522.6,145h-38H71.8h-38v38v412.8v38h38h412.8h38v-38V183V145L522.6,145z"
		/>
</g>
<rect x="112" y="226.5" fill="#FFFFFF" width="331.3" height="252.1"/>
<linearGradient id="SVGID_3_" gradientUnits="userSpaceOnUse" x1="167.0723" y1="361.2698" x2="433.22" y2="451.9816">
	<stop  offset="0" style="stop-color:#4C6486"/>
	<stop  offset="1.980000e-02" style="stop-color:#4C6486"/>
	<stop  offset="1" style="stop-color:#5A77A0"/>
</linearGradient>
<polygon fill="url(#SVGID_3_)" points="361.3,332.5 333.4,380.8 284.7,296.5 212.4,421.8 183.4,371.5 135.1,455.2 193.1,455.2 
	231.7,455.2 290.4,455.2 376.3,455.2 432.1,455.2 "/>
</svg>
